<?xml version="1.0" encoding="UTF-8"?>
<level>
  <owner>stolbitsa</owner>
  <repo>merry-christmas-kids-4</repo>
  <version>v1.0.1</version>
  <next number="1" owner="stolbitsa" repo="merry-christmas-kids-5"/>
  <readme>
    <ru>ee0c108492f5206f0f93583e0b870cc711150bda7d403e44a0d8d8a19fa98025</ru>
    <en>5ca3dc52e6cc693c0cb4931f962b809633f66074e131ab666ffca3fa2664be6e</en>
  </readme>
  <license>b1b99f5538d1fd3702219bff50c665196dfa42f6ee755c37fe41a6178d6bc6e5</license>
  <exercise number="1">
    <scale>major</scale>
    <bpm>145</bpm>
    <lowestNote>5</lowestNote>
    <tonalities>6</tonalities>
    <video name="20-kids-tv-mer-xmas-4_1.mp4" size="2676471" type="video/mp4" volume="0.563">1a69ba695b0c90cba8484fc24ca02de9d566b4e2153cab3709ac8d3e945f25d9</video>
    <notes>
      <note number="1" values="5" ticks="76" durationTicks="86" ppq="96" velocity="0.843"/>
      <note number="2" values="18" ticks="171" durationTicks="73" ppq="96" velocity="0.739"/>
      <note number="3" values="18" ticks="268" durationTicks="45" ppq="96" velocity="0.719"/>
      <note number="4" values="28" ticks="316" durationTicks="40" ppq="96" velocity="0.719"/>
      <note number="5" values="18" ticks="365" durationTicks="41" ppq="96" velocity="0.719"/>
      <note number="6" values="7" ticks="413" durationTicks="37" ppq="96" velocity="0.719"/>
      <note number="7" values="6" ticks="462" durationTicks="78" ppq="96" velocity="0.719"/>
      <note number="8" values="6" ticks="556" durationTicks="95" ppq="96" velocity="0.719"/>
    </notes>
  </exercise>
  <exercise number="2">
    <scale>major</scale>
    <bpm>145</bpm>
    <lowestNote>5</lowestNote>
    <tonalities>6</tonalities>
    <video name="20-kids-tv-mer-xmas-4_2.mp4" size="2941358" type="video/mp4" volume="0.51">91c0d76a19a0c6047a0a937e6661e28bbaefe13ac1fd5c7754535b9936713521</video>
    <notes>
      <note number="1" values="6" ticks="94" durationTicks="86" ppq="96" velocity="0.843"/>
      <note number="2" values="28" ticks="189" durationTicks="77" ppq="96" velocity="0.739"/>
      <note number="3" values="28" ticks="286" durationTicks="45" ppq="96" velocity="0.719"/>
      <note number="4" values="38" ticks="336" durationTicks="41" ppq="96" velocity="0.737"/>
      <note number="5" values="28" ticks="381" durationTicks="45" ppq="96" velocity="0.719"/>
      <note number="6" values="18" ticks="428" durationTicks="46" ppq="96" velocity="0.719"/>
      <note number="7" values="7" ticks="480" durationTicks="95" ppq="96" velocity="0.719"/>
      <note number="8" values="5" ticks="574" durationTicks="95" ppq="96" velocity="0.719"/>
    </notes>
  </exercise>
  <exercise number="3">
    <scale>major</scale>
    <bpm>145</bpm>
    <lowestNote>5</lowestNote>
    <tonalities>6</tonalities>
    <video name="20-kids-tv-mer-xmas-4_3.mp4" size="2500420" type="video/mp4" volume="0.553">22599a5379716f5bf7c585c0cd1abd3084d618d0419c66d07222be16faee8bbf</video>
    <notes>
      <note number="1" values="5" ticks="102" durationTicks="86" ppq="96" velocity="0.843"/>
      <note number="2" values="38" ticks="197" durationTicks="77" ppq="96" velocity="0.739"/>
      <note number="3" values="38" ticks="294" durationTicks="48" ppq="96" velocity="0.719"/>
      <note number="4" values="48" ticks="342" durationTicks="45" ppq="96" velocity="0.719"/>
      <note number="5" values="38" ticks="392" durationTicks="46" ppq="96" velocity="0.719"/>
      <note number="6" values="28" ticks="438" durationTicks="45" ppq="96" velocity="0.719"/>
      <note number="7" values="18" ticks="488" durationTicks="95" ppq="96" velocity="0.719"/>
      <note number="8" values="6" ticks="582" durationTicks="95" ppq="96" velocity="0.719"/>
    </notes>
  </exercise>
  <exercise number="4">
    <scale>major</scale>
    <bpm>145</bpm>
    <lowestNote>5</lowestNote>
    <tonalities>6</tonalities>
    <video name="20-kids-tv-mer-xmas-4_4.mp4" size="2753197" type="video/mp4" volume="0.55">0d3f2058e79daf855edbe1321a9365c92f50751480758ea0c490392b8157f0db</video>
    <notes>
      <note number="1" values="5" ticks="105" durationTicks="93" ppq="96" velocity="0.843"/>
      <note number="2" values="6" ticks="201" durationTicks="98" ppq="96" velocity="0.739"/>
      <note number="3" values="28" ticks="298" durationTicks="95" ppq="96" velocity="0.719"/>
      <note number="4" values="7" ticks="394" durationTicks="93" ppq="96" velocity="0.719"/>
      <note number="5" values="18" ticks="489" durationTicks="96" ppq="96" velocity="0.719"/>
    </notes>
  </exercise>
  <exercise number="5">
    <scale>major</scale>
    <bpm>145</bpm>
    <lowestNote>5</lowestNote>
    <tonalities>6</tonalities>
    <video name="20-kids-tv-mer-xmas-4_5.mp4" size="2525516" type="video/mp4" volume="0.546">4c2bbe13726283d0b8f8d04388a8a8e0dc2e611a3845666acf07c81d018e5d88</video>
    <notes>
      <note number="1" values="5" ticks="98" durationTicks="86" ppq="96" velocity="0.843"/>
      <note number="2" values="18" ticks="193" durationTicks="80" ppq="96" velocity="0.732"/>
      <note number="3" values="18" ticks="290" durationTicks="75" ppq="96" velocity="0.717"/>
      <note number="4" values="18" ticks="385" durationTicks="84" ppq="96" velocity="0.717"/>
      <note number="5" values="7" ticks="483" durationTicks="91" ppq="96" velocity="0.717"/>
    </notes>
  </exercise>
  <exercise number="6">
    <scale>major</scale>
    <bpm>145</bpm>
    <lowestNote>5</lowestNote>
    <tonalities>6</tonalities>
    <video name="20-kids-tv-mer-xmas-4_6.mp4" size="2847913" type="video/mp4" volume="0.521">07eaaf532f044104eafcd4fe9b03c3a01b6bfc7db54e0536f3393047f5a505c3</video>
    <notes>
      <note number="1" values="7" ticks="96" durationTicks="86" ppq="96" velocity="0.843"/>
      <note number="2" values="18" ticks="191" durationTicks="79" ppq="96" velocity="0.732"/>
      <note number="3" values="7" ticks="288" durationTicks="90" ppq="96" velocity="0.717"/>
      <note number="4" values="6" ticks="384" durationTicks="93" ppq="96" velocity="0.732"/>
      <note number="5" values="5" ticks="481" durationTicks="93" ppq="96" velocity="0.717"/>
    </notes>
  </exercise>
  <exercise number="7">
    <scale>major</scale>
    <bpm>145</bpm>
    <lowestNote>5</lowestNote>
    <tonalities>6</tonalities>
    <video name="20-kids-tv-mer-xmas-4_7.mp4" size="2251249" type="video/mp4" volume="0.548">41aa27032cc5197d4ecd641fdbff98e74f798971346a22bae6febe8342de2fdd</video>
    <notes>
      <note number="1" values="28" ticks="88" durationTicks="86" ppq="96" velocity="0.843"/>
      <note number="2" values="38" ticks="183" durationTicks="74" ppq="96" velocity="0.732"/>
      <note number="3" values="38" ticks="280" durationTicks="37" ppq="96" velocity="0.717"/>
      <note number="4" values="28" ticks="329" durationTicks="31" ppq="96" velocity="0.717"/>
      <note number="5" values="18" ticks="378" durationTicks="44" ppq="96" velocity="0.717"/>
      <note number="6" values="28" ticks="425" durationTicks="38" ppq="96" velocity="0.717"/>
      <note number="7" values="58" ticks="474" durationTicks="95" ppq="96" velocity="0.717"/>
      <note number="8" values="5" ticks="568" durationTicks="95" ppq="96" velocity="0.717"/>
    </notes>
  </exercise>
  <exercise number="8">
    <scale>major</scale>
    <bpm>145</bpm>
    <lowestNote>5</lowestNote>
    <tonalities>6</tonalities>
    <video name="20-kids-tv-mer-xmas-4_8.mp4" size="2742233" type="video/mp4" volume="0.538">81a86946360a590d77ca3c2dab2a09336afbbfbfd2f7ea5fc0c3c77d9a390fca</video>
    <notes>
      <note number="1" values="5" ticks="71" durationTicks="44" ppq="96" velocity="0.843"/>
      <note number="2" values="5" ticks="134" durationTicks="34" ppq="96" velocity="0.732"/>
      <note number="3" values="6" ticks="169" durationTicks="95" ppq="96" velocity="0.717"/>
      <note number="4" values="28" ticks="266" durationTicks="93" ppq="96" velocity="0.717"/>
      <note number="5" values="7" ticks="362" durationTicks="96" ppq="96" velocity="0.717"/>
      <note number="6" values="18" ticks="457" durationTicks="120" ppq="96" velocity="0.717"/>
    </notes>
  </exercise>
</level>
